# xmcd CD database file
#
# Track frame offsets:
#	150
#	45213
#	117983
#	147660
#	168381
#	187401
#	203514
#	238419
#	296409
#
# Disc length: 4168 seconds
#
# Revision: 0
# Processed by: cddbd v1.5.1PL2 Copyright (c) Steve Scherf et al.
# Submitted via: CDex 1.50
#
DISCID=89104609
DTITLE=John Coltrane - The Impulse Story (1961-1967)
DYEAR=2006
DGENRE=Jazz
TTITLE0=Greensleeves
TTITLE1=Chasin' the Trane
TTITLE2=Tunji
TTITLE3=Impressions
TTITLE4=After the Rain
TTITLE5=Bessie's Blues
TTITLE6=A Love Supreme: Part 1- Acknowledgement
TTITLE7=The Father and the Son and the Holy Ghost
TTITLE8=Ogunde
EXTD=YEAR: 2006
EXTT0=
EXTT1=
EXTT2=
EXTT3=
EXTT4=
EXTT5=
EXTT6=
EXTT7=
EXTT8=
PLAYORDER=
